<mxfile host="app.diagrams.net" modified="2024-02-23T18:05:35.606Z" agent="Mozilla/5.0 (Windows NT 10.0; Win64; x64; rv:123.0) Gecko/20100101 Firefox/123.0" etag="hAArrwOy2J4LcpQgHM6Q" version="23.1.6" type="device">
  <diagram name="Page-1" id="jFHW5IWW2JGIcyRpXQIS">
    <mxGraphModel dx="2269" dy="1103" grid="1" gridSize="10" guides="1" tooltips="1" connect="1" arrows="1" fold="1" page="1" pageScale="1" pageWidth="850" pageHeight="1100" math="0" shadow="0">
      <root>
        <mxCell id="0" />
        <mxCell id="1" parent="0" />
        <mxCell id="V3-_lJ8pePpj4xOU_0b3-1" value="" style="rounded=0;whiteSpace=wrap;html=1;" vertex="1" parent="1">
          <mxGeometry x="80" y="70" width="1580" height="640" as="geometry" />
        </mxCell>
        <mxCell id="V3-_lJ8pePpj4xOU_0b3-2" value="" style="endArrow=none;dashed=1;html=1;dashPattern=1 3;strokeWidth=2;rounded=0;entryX=0.25;entryY=0;entryDx=0;entryDy=0;exitX=0.25;exitY=1;exitDx=0;exitDy=0;" edge="1" parent="1" source="V3-_lJ8pePpj4xOU_0b3-1" target="V3-_lJ8pePpj4xOU_0b3-1">
          <mxGeometry width="50" height="50" relative="1" as="geometry">
            <mxPoint x="360" y="420" as="sourcePoint" />
            <mxPoint x="410" y="370" as="targetPoint" />
          </mxGeometry>
        </mxCell>
        <mxCell id="V3-_lJ8pePpj4xOU_0b3-3" value="" style="endArrow=none;dashed=1;html=1;dashPattern=1 3;strokeWidth=2;rounded=0;entryX=0.5;entryY=0;entryDx=0;entryDy=0;exitX=0.5;exitY=1;exitDx=0;exitDy=0;" edge="1" parent="1" source="V3-_lJ8pePpj4xOU_0b3-1" target="V3-_lJ8pePpj4xOU_0b3-1">
          <mxGeometry width="50" height="50" relative="1" as="geometry">
            <mxPoint x="360" y="420" as="sourcePoint" />
            <mxPoint x="410" y="370" as="targetPoint" />
          </mxGeometry>
        </mxCell>
        <mxCell id="V3-_lJ8pePpj4xOU_0b3-4" value="" style="endArrow=none;html=1;rounded=0;exitX=0.001;exitY=0.094;exitDx=0;exitDy=0;exitPerimeter=0;entryX=1;entryY=0.094;entryDx=0;entryDy=0;entryPerimeter=0;" edge="1" parent="1" source="V3-_lJ8pePpj4xOU_0b3-1" target="V3-_lJ8pePpj4xOU_0b3-1">
          <mxGeometry width="50" height="50" relative="1" as="geometry">
            <mxPoint x="360" y="420" as="sourcePoint" />
            <mxPoint x="410" y="370" as="targetPoint" />
          </mxGeometry>
        </mxCell>
        <mxCell id="V3-_lJ8pePpj4xOU_0b3-5" value="NASABAH" style="text;html=1;align=center;verticalAlign=middle;whiteSpace=wrap;rounded=0;" vertex="1" parent="1">
          <mxGeometry x="160" y="80" width="60" height="30" as="geometry" />
        </mxCell>
        <mxCell id="V3-_lJ8pePpj4xOU_0b3-11" style="edgeStyle=orthogonalEdgeStyle;rounded=0;orthogonalLoop=1;jettySize=auto;html=1;entryX=0;entryY=0.5;entryDx=0;entryDy=0;" edge="1" parent="1" source="V3-_lJ8pePpj4xOU_0b3-7" target="V3-_lJ8pePpj4xOU_0b3-9">
          <mxGeometry relative="1" as="geometry" />
        </mxCell>
        <mxCell id="V3-_lJ8pePpj4xOU_0b3-7" value="APi &lt;br&gt;Register" style="strokeWidth=2;html=1;shape=mxgraph.flowchart.multi-document;whiteSpace=wrap;" vertex="1" parent="1">
          <mxGeometry x="146" y="140" width="88" height="60" as="geometry" />
        </mxCell>
        <mxCell id="V3-_lJ8pePpj4xOU_0b3-8" value="DUKCAPIL" style="text;html=1;align=center;verticalAlign=middle;whiteSpace=wrap;rounded=0;" vertex="1" parent="1">
          <mxGeometry x="650" y="80" width="60" height="30" as="geometry" />
        </mxCell>
        <mxCell id="V3-_lJ8pePpj4xOU_0b3-9" value="Checking &lt;br&gt;Data" style="shape=process;whiteSpace=wrap;html=1;backgroundOutline=1;" vertex="1" parent="1">
          <mxGeometry x="610" y="140" width="120" height="60" as="geometry" />
        </mxCell>
        <mxCell id="V3-_lJ8pePpj4xOU_0b3-10" value="" style="endArrow=none;dashed=1;html=1;dashPattern=1 3;strokeWidth=2;rounded=0;entryX=0.75;entryY=0;entryDx=0;entryDy=0;exitX=0.75;exitY=1;exitDx=0;exitDy=0;" edge="1" parent="1" source="V3-_lJ8pePpj4xOU_0b3-1" target="V3-_lJ8pePpj4xOU_0b3-1">
          <mxGeometry width="50" height="50" relative="1" as="geometry">
            <mxPoint x="360" y="420" as="sourcePoint" />
            <mxPoint x="410" y="370" as="targetPoint" />
          </mxGeometry>
        </mxCell>
        <mxCell id="V3-_lJ8pePpj4xOU_0b3-12" value="Repository file upload" style="text;html=1;align=center;verticalAlign=middle;whiteSpace=wrap;rounded=0;" vertex="1" parent="1">
          <mxGeometry x="1020" y="80" width="60" height="30" as="geometry" />
        </mxCell>
        <mxCell id="V3-_lJ8pePpj4xOU_0b3-14" value="Simpan &lt;br&gt;File Foto" style="shape=cube;whiteSpace=wrap;html=1;boundedLbl=1;backgroundOutline=1;darkOpacity=0.05;darkOpacity2=0.1;" vertex="1" parent="1">
          <mxGeometry x="1010" y="160" width="120" height="80" as="geometry" />
        </mxCell>
        <mxCell id="V3-_lJ8pePpj4xOU_0b3-15" style="edgeStyle=orthogonalEdgeStyle;rounded=0;orthogonalLoop=1;jettySize=auto;html=1;entryX=0;entryY=0;entryDx=0;entryDy=60;entryPerimeter=0;" edge="1" parent="1" source="V3-_lJ8pePpj4xOU_0b3-7" target="V3-_lJ8pePpj4xOU_0b3-14">
          <mxGeometry relative="1" as="geometry">
            <Array as="points">
              <mxPoint x="190" y="220" />
              <mxPoint x="660" y="220" />
            </Array>
          </mxGeometry>
        </mxCell>
        <mxCell id="V3-_lJ8pePpj4xOU_0b3-17" value="BackOffice" style="text;html=1;align=center;verticalAlign=middle;whiteSpace=wrap;rounded=0;" vertex="1" parent="1">
          <mxGeometry x="1440" y="80" width="60" height="30" as="geometry" />
        </mxCell>
        <mxCell id="V3-_lJ8pePpj4xOU_0b3-18" value="Database Loan" style="shape=cylinder3;whiteSpace=wrap;html=1;boundedLbl=1;backgroundOutline=1;size=15;" vertex="1" parent="1">
          <mxGeometry x="1370" y="210" width="150" height="120" as="geometry" />
        </mxCell>
        <mxCell id="V3-_lJ8pePpj4xOU_0b3-19" style="edgeStyle=orthogonalEdgeStyle;rounded=0;orthogonalLoop=1;jettySize=auto;html=1;entryX=0;entryY=0.5;entryDx=0;entryDy=0;entryPerimeter=0;" edge="1" parent="1" source="V3-_lJ8pePpj4xOU_0b3-7" target="V3-_lJ8pePpj4xOU_0b3-18">
          <mxGeometry relative="1" as="geometry">
            <Array as="points">
              <mxPoint x="190" y="290" />
            </Array>
          </mxGeometry>
        </mxCell>
        <mxCell id="V3-_lJ8pePpj4xOU_0b3-26" style="edgeStyle=orthogonalEdgeStyle;rounded=0;orthogonalLoop=1;jettySize=auto;html=1;" edge="1" parent="1" source="V3-_lJ8pePpj4xOU_0b3-22" target="V3-_lJ8pePpj4xOU_0b3-24">
          <mxGeometry relative="1" as="geometry" />
        </mxCell>
        <mxCell id="V3-_lJ8pePpj4xOU_0b3-22" value="API &lt;br&gt;Pengajuan" style="strokeWidth=2;html=1;shape=mxgraph.flowchart.multi-document;whiteSpace=wrap;" vertex="1" parent="1">
          <mxGeometry x="120" y="520" width="88" height="60" as="geometry" />
        </mxCell>
        <mxCell id="V3-_lJ8pePpj4xOU_0b3-31" style="edgeStyle=orthogonalEdgeStyle;rounded=0;orthogonalLoop=1;jettySize=auto;html=1;entryX=0;entryY=0.5;entryDx=0;entryDy=0;" edge="1" parent="1" source="V3-_lJ8pePpj4xOU_0b3-24" target="V3-_lJ8pePpj4xOU_0b3-28">
          <mxGeometry relative="1" as="geometry">
            <Array as="points">
              <mxPoint x="1470" y="500" />
              <mxPoint x="1540" y="500" />
              <mxPoint x="1540" y="470" />
            </Array>
          </mxGeometry>
        </mxCell>
        <mxCell id="V3-_lJ8pePpj4xOU_0b3-24" value="Prose Pengajuan" style="shape=process;whiteSpace=wrap;html=1;backgroundOutline=1;" vertex="1" parent="1">
          <mxGeometry x="1310" y="470" width="120" height="60" as="geometry" />
        </mxCell>
        <mxCell id="V3-_lJ8pePpj4xOU_0b3-29" value="Yes" style="edgeStyle=orthogonalEdgeStyle;rounded=0;orthogonalLoop=1;jettySize=auto;html=1;" edge="1" parent="1" source="V3-_lJ8pePpj4xOU_0b3-28" target="V3-_lJ8pePpj4xOU_0b3-18">
          <mxGeometry relative="1" as="geometry">
            <Array as="points">
              <mxPoint x="1445" y="450" />
            </Array>
          </mxGeometry>
        </mxCell>
        <mxCell id="V3-_lJ8pePpj4xOU_0b3-35" style="edgeStyle=orthogonalEdgeStyle;rounded=0;orthogonalLoop=1;jettySize=auto;html=1;" edge="1" parent="1" source="V3-_lJ8pePpj4xOU_0b3-28" target="V3-_lJ8pePpj4xOU_0b3-32">
          <mxGeometry relative="1" as="geometry" />
        </mxCell>
        <mxCell id="V3-_lJ8pePpj4xOU_0b3-36" value="NO" style="edgeLabel;html=1;align=center;verticalAlign=middle;resizable=0;points=[];" vertex="1" connectable="0" parent="V3-_lJ8pePpj4xOU_0b3-35">
          <mxGeometry x="0.0138" relative="1" as="geometry">
            <mxPoint as="offset" />
          </mxGeometry>
        </mxCell>
        <mxCell id="V3-_lJ8pePpj4xOU_0b3-28" value="Approve&lt;br&gt;/not" style="rhombus;whiteSpace=wrap;html=1;" vertex="1" parent="1">
          <mxGeometry x="1570" y="460" width="80" height="80" as="geometry" />
        </mxCell>
        <mxCell id="V3-_lJ8pePpj4xOU_0b3-32" value="Notif" style="ellipse;shape=cloud;whiteSpace=wrap;html=1;" vertex="1" parent="1">
          <mxGeometry x="1550" y="290" width="120" height="80" as="geometry" />
        </mxCell>
        <mxCell id="V3-_lJ8pePpj4xOU_0b3-34" value="API&lt;br&gt;Konfirmasi&lt;br&gt;Payment" style="strokeWidth=2;html=1;shape=mxgraph.flowchart.multi-document;whiteSpace=wrap;" vertex="1" parent="1">
          <mxGeometry x="320" y="400" width="88" height="60" as="geometry" />
        </mxCell>
        <mxCell id="V3-_lJ8pePpj4xOU_0b3-37" style="edgeStyle=orthogonalEdgeStyle;rounded=0;orthogonalLoop=1;jettySize=auto;html=1;entryX=0;entryY=1;entryDx=0;entryDy=-15;entryPerimeter=0;" edge="1" parent="1" source="V3-_lJ8pePpj4xOU_0b3-34" target="V3-_lJ8pePpj4xOU_0b3-18">
          <mxGeometry relative="1" as="geometry" />
        </mxCell>
        <mxCell id="V3-_lJ8pePpj4xOU_0b3-39" style="edgeStyle=orthogonalEdgeStyle;rounded=0;orthogonalLoop=1;jettySize=auto;html=1;entryX=0.4;entryY=0.1;entryDx=0;entryDy=0;entryPerimeter=0;" edge="1" parent="1" source="V3-_lJ8pePpj4xOU_0b3-18" target="V3-_lJ8pePpj4xOU_0b3-32">
          <mxGeometry relative="1" as="geometry" />
        </mxCell>
      </root>
    </mxGraphModel>
  </diagram>
</mxfile>
